<svg width="24" height="24" viewBox="0 0 24 24" fill="none" xmlns="http://www.w3.org/2000/svg">
<path fill-rule="evenodd" clip-rule="evenodd" d="M7.42344 4.656C7.53571 4.4955 7.71924 4.3999 7.9151 4.3999H15.5818C15.7776 4.3999 15.9612 4.4955 16.0734 4.656L17.9901 7.39619C18.0606 7.497 18.0984 7.61706 18.0984 7.74009V17.3307C18.0984 17.8403 17.9101 18.3366 17.563 18.7088C17.2146 19.0823 16.7327 19.3008 16.2207 19.3008H7.27622C6.20333 19.3008 5.39844 18.3756 5.39844 17.3307V7.74009C5.39844 7.61706 5.43626 7.497 5.50678 7.39619L7.42344 4.656ZM8.22763 5.5999L7.15033 7.14009H16.3465L15.2692 5.5999H8.22763ZM16.8984 8.34009H6.59844V17.3307C6.59844 17.793 6.94354 18.1008 7.27622 18.1008H16.2207C16.3864 18.1008 16.5545 18.0306 16.6854 17.8903C16.8176 17.7486 16.8984 17.548 16.8984 17.3307V8.34009ZM9.19288 9.88027C9.52425 9.88027 9.79288 10.1489 9.79288 10.4803C9.79288 11.0609 10.0084 11.61 10.3802 12.0087C10.7507 12.4059 11.2438 12.6205 11.7484 12.6205C12.253 12.6205 12.7462 12.4059 13.1167 12.0087C13.4885 11.61 13.704 11.0609 13.704 10.4803C13.704 10.1489 13.9726 9.88027 14.304 9.88027C14.6354 9.88027 14.904 10.1489 14.904 10.4803C14.904 11.3532 14.581 12.198 13.9943 12.8271C13.4062 13.4576 12.5994 13.8205 11.7484 13.8205C10.8975 13.8205 10.0906 13.4576 9.5026 12.8271C8.91588 12.198 8.59288 11.3532 8.59288 10.4803C8.59288 10.1489 8.86151 9.88027 9.19288 9.88027Z" fill="white"/>
</svg>
